<?xml version="1.0" encoding="utf-8"?>
<!-- Generator: Adobe Illustrator 21.1.0, SVG Export Plug-In . SVG Version: 6.00 Build 0)  -->
<svg version="1.1" id="Layer_1" xmlns="http://www.w3.org/2000/svg" xmlns:xlink="http://www.w3.org/1999/xlink" x="0px" y="0px"
	 viewBox="0 0 496 514" style="enable-background:new 0 0 496 514;" xml:space="preserve">
<style type="text/css">
	.st0{fill:#0D0D0D;}
	.st1{fill:#C67A17;}
</style>
<g id="HK5NRB.tif">
	<g>
		<path class="st0" d="M165.7,372.1c3.2,0.4,5.1-1.5,6.8-3.9c14.4-19.3,29.1-38.3,43.2-57.8c5.4-7.5,10.7-15.2,16.7-22.3
			c1.6-1.9,1.6-3.4,0.6-5.6c-2.1-4.6-3.8-9.4-6-14.9c-17.6,20.9-41.1,32.8-65.9,44.3c3.9,1.5,7.1,2.7,10.3,4
			c17.3,7.1,19.7,18.4,9.5,33c-8.6,12.2-21.6,18.3-34.9,23.9c-9.6,4.1-19.6,7.2-30.1,9.7c-2.5,37.1-4.9,74.1-7.4,111.1
			c-3.6-35.9-3.7-72-5.6-108c-6.2,0-11.8,0-17.4,0c-5.5,0-11-0.1-16.4-1.3c0-0.7,0-1.3,0-2c4-0.4,7.9-1,11.9-1.2
			c5.8-0.4,11.6-1,17.2-2.7c2.8-0.9,4.1-2.1,3.9-5.2c-0.8-14.9-1.6-29.9-1.5-44.7c0.1-16.6-1.1-33.1-0.8-49.6
			c0.2-10.6,0-21.2,0-33.1c-21.6,8.6-38.7,21.4-57.5,34c0-7.1,0.1-13.2,0-19.3c-0.1-2.5,1.7-2.9,3.3-3.7
			c14.1-6.4,28.8-10.8,43.4-15.7c2-0.7,4.1-1.3,6.1-2.1c1.7-0.6,3.5-1.2,2.9-3.7c-0.6-2.5-2.6-2.5-4.3-2.2
			c-6.5,1.3-13.1,2.5-19.7,3.2c-14.5,1.6-28.1-0.9-40.3-8.9c-14.1-9.3-21.3-22.9-22.6-39.6c-1.6-19.4,4.9-36.9,14.8-52.8
			c20.9-33.6,51-58.1,82.7-80.8C121.1,45.3,134,37,146.5,28c-16.4,2.6-31.6,9.8-48,12.6c3-4,7.5-4.9,11.6-6.5
			c18.1-7,36.9-12.1,55.7-16.9c6.8-1.7,12.8-5.3,19.2-7.9c2.3-0.9,4.3-2.2,7-1c-1.2,2.1-3.9,2.2-4.6,4.4c1.1,1.6,2.5,0.9,3.7,0.8
			c16.8-0.8,33.2,0.5,49.2,6.3c17.3,6.3,28.6,21.9,29.9,40.3c1.5,22.3-6.5,41.2-19,59c-20.6,29-45.6,53.5-74.4,74.2
			c-13.8,9.9-27.9,19-43.5,25.7c-5,2.2-10.3,3.6-16.4,5.7c4.7,2.4,8.3,5,13.6,3.8c21-4.6,42.3-7.5,63.9-6.3
			c10.6,0.6,21.2,1.9,30.6,7.6c8.4,5.1,11.4,12.6,8.8,22c-1.4,5-2.9,9.9-5.3,15c7-3.5,14-7,20.9-10.5c2.1,0.8,2.2,2.5,2.6,4.2
			c6.2,27,13.3,53.8,19.4,80.8c2.4,10.8,5.2,21.6,8.3,32.2c0.4,1.3,1,2.4,1.5,3.7c1,11.3,5.3,21.8,7.1,32.9c0.2,1.4,1.4,1.4,3,1.3
			c3.4-0.2,6.2-3.4,9.7-1.7c-0.8,3.3-4.2,3.1-6.3,4.6c-1.4,1-3.1,1.6-4.6,2.4c2.8,11.5,5.6,22.7,8.3,34c-5.3-3.6-6.2-9.5-7.9-14.6
			c-1.9-5.6-4.6-11-6-16.9c-6.5,0.1-12.3,2.3-18.3,3.3c-20.8,3.3-41.8,3.8-62.7,3c-15.1-0.6-30.2-2-45.2-4.6c-5.1-0.9-10-2.3-15-3.6
			c-2.8-0.8-4.9-0.1-6.4,2.3c-1.9,2.9-4.4,5.1-7.6,7.9c1.3-5,5.3-7.5,6.8-11.6c-4.7-2.1-8.9-4.7-12.8-8c-7.4-6.3-7.8-11.9-1-18.9
			c5.8-5.8,13-9,20.6-11.7c3.9-1.4,8.1-1.8,12-3.2c2.4-0.9,4.4,0.2,6.6,0.2c-3.5,1-7,1.9-10.5,2.9c-8.4,2.6-16.6,5.8-23.3,11.9
			c-4,3.6-3.9,6,0.4,9.4c1.9,1.5,3.5,3.4,5.3,5c5,4.7,9.2,4.3,13.3-1.1c0.4-0.5,0.9-1,1.3-1.5c6-7.9,12-15.8,17.9-23.7
			C167.1,375.4,169.1,373.6,165.7,372.1z M266.2,373.1c-5.8-18.1-13.2-35.7-20.2-53.4c-1.3-3.2-1.8-7.4-5.2-10
			c-1.2,1-2.3,1.7-3.2,2.7c-12.7,13.5-25.4,27.1-38.1,40.6c-4.7,5-9.3,10.1-14,15.1c-0.3,0.1-0.7,0.1-0.9,0.3
			c-8.9,9.6-17.9,19.1-26.6,28.9c-3.4,3.8-7.9,6.9-10.2,11.9c14.1,5.2,28.6,5.1,42.6,7.3c7.3,1.2,7.5,0.8,7.4-6.7c0-2.6,0-5.2,0-8
			c-1.9,0.2-3.5-0.7-5.2,0.2c-0.3,2.6-0.6,5.1-0.9,7.6c-0.4,0.1-0.9,0.2-1.3,0.2c-0.8-4.2,1.4-9.7-5.3-11.9c5.6-0.5,4.8-3.8,4.9-6.8
			c0-1.5,0.1-3,0-4.5c-0.3-3.4,1.3-5.3,4.8-5.8c1,4.3-0.7,8.3-0.8,12.3c0,1.4,0,2.9,1.7,3.2c2.1,0.3,2.3-1.4,2.5-2.9
			c0.3-3.8,0.9-7.6,0.8-11.4c-0.2-4.7,2.1-6.4,6.7-6.9c-1.4,7.3-2.2,14.4-2.4,21.3c4.9,1.8,6.8-0.5,7.8-4.2
			c1.3-4.6,2.8-9.2,3.9-13.9c0.7-3.1,2.9-4.8,5.5-4.9c3.1-0.1,2.3,3,2.6,5c0.9,7.4,1.8,14.9,2.6,22.3c2-3.2,0.4-7,2.6-9.9
			c2-2.6,3.8-5.4,7.2-6.6c3.2-1.1,6.3-3.1,9.6-0.3c-1.1,4.1-2.5,6.9-7.6,5.2c-2.9-1-5.1,0.8-5.9,3.9c-0.9,3.5,0.1,6.1,3.1,8.1
			c3.7,2.4,7.3,4.8,12,3.2c1-0.4,1.1-1.6,1.1-2.6c0-5.2,0.7-10.5-0.2-15.4c-1.1-5.7,1.9-7.5,6.6-9.9c-1.2,4.3-0.8,7.6,1.1,10.5
			c3.6-0.5,5-3.9,7.9-5.2c1.9,1.7,3.7,3.9,0.9,5.3c-5.5,2.7-3.7,5.4-1,8.8c2.1,2.6,4.1,5.3,5.7,8.1c0.9,1.5,2.9,3,1.3,5.6
			c-6.9-3.5-11.1-10.2-17.2-14.9c-0.8,2.3-0.9,4.1-0.5,6c1.1,1,2.9,0,3.8,2.3c-2.2,3.4-6.2,6.3-6.3,11.9c-2.2-2-1.2-5-4.4-4.7
			c-5.7,0.6-10.9-0.7-15.3-4.6c-0.7-0.6-1.9-0.7-2.7,0.1c-1.5,2.4,0.9,5.9-2.4,8.4c-0.7-2.5-1.2-4.3-1.6-6.2
			c-0.6-2.5-0.1-5.6-4.2-5.5c-4,0.1-8.6-1.5-9.9,4.6c-0.3,1.6-0.7,4.3-3.8,3.1c-0.3-2,1-3.2,1.4-4.8c0.4-1.5,0.5-3.1-1.5-3.6
			c-1.8-0.4-3.5-0.2-3.6,2.1c-0.2,4.3-1.9,8.4-1.1,13.4c27.2,1.6,54.2,1.8,81.1-3.4c1-5.4-2.9-9-4.5-13.4
			C273.8,391.1,270.8,381.8,266.2,373.1z M85.9,221.3c3.6-0.5,7.6-0.1,11.5-1c11.4-2.5,22.3-6.4,32.9-11.4
			c21.9-10.2,41.6-23.7,58.9-40.5c12-11.7,23.1-24.2,33.4-37.5c11.7-15,21.6-31,27.3-49.3c7.4-23.5-2.8-47.7-27.2-55.2
			c-9.7-3-19.6-3.7-29.6-3.5c-18.2,0.4-34.7,5.3-49.1,16.9C134,48,123.6,56,113.6,64.4C103.4,73.1,93.4,82,84.1,91.7
			c-9.3,9.7-17.9,19.8-25.3,31.2c-11.7,18.1-19.2,37-17.3,58.9C43.7,205.9,61,221.6,85.9,221.3z M129.8,316.9
			c13.4-6.4,25.2-13.8,36.2-22.3c12.3-9.6,23.2-20.4,27-36.4c1.6-6.7-0.3-12-5.6-16.3c-5.9-4.8-12.8-6.9-20.1-7.7
			c-12.9-1.4-25.5-0.2-38.2,2.5c-3.5,0.8-4.6,1.8-4.8,5.3c-2,38.1-4.2,76.1-6.2,114.2c-0.3,4.9-1.4,9.8-0.5,15
			c7.3-1.3,13.5-4,19.4-8c9-6.1,18.4-11.7,23.6-21.9c2.9-5.8,2.3-10.4-2.6-14.6c-4.3-3.6-9.6-4.9-14.9-6.5
			C139,318.8,134.5,319.4,129.8,316.9z M216.5,387.9c-1.1,2.9-2.1,5.6-3.3,8.8c2.7,0,4.6,0.4,7-0.5
			C219.1,393.5,220.3,390,216.5,387.9z"/>
		<path class="st0" d="M369.3,444.5c0-28.2,0-56.4,0-85.4c-9.5,4.8-18.9,7.6-28.7,8.1c-20.9,1.1-40.3-3.2-56.3-17.7
			c-14.3-13-18.7-31-11.3-48.1c4.4-10.1,12.5-17,21.4-22.9c7.1-4.7,14.9-8.1,22.8-10.9c9.7-3.4,19.8-1.7,29.7-1.1
			c7.3,0.4,14.4,2.2,21.8,5c-3.4,6.4-8.3,11.3-12.5,17.4c-6-6.9-12.8-11.4-20.9-13.8c-22-6.7-39.4,11.7-42.4,28.1
			c-2,11.2-0.9,21.9,4.1,32c7.8,15.7,20.7,23.9,38.4,24.8c10.9,0.5,21.1-1.6,30.7-6.9c2.3-1.3,3.3-2.8,3.3-5.5
			c-0.2-25-0.9-50-0.2-75c0.7-27.3,0.1-54.6,0.5-81.9c0-1.4-0.3-2.9,1.4-3.9c8.5-4.9,16.9-9.9,26.4-15.6
			c-3.3,36.7-6.5,72.1-9.8,107.6c0.4,0.2,0.8,0.5,1.3,0.7c6.4-6.6,12.8-13.2,19.3-19.7c16.9-17,33.9-33.9,50.8-50.9
			c2.4-2.4,4.8-3.6,8.3-3.4c6.2,0.4,12.5-0.4,20,0.6c-4.1,3.7-7.5,6.8-10.9,9.8c-23.8,20.7-47.6,41.4-71.4,62
			c-2.1,1.8-2.7,3.1-1,5.8c9.2,14.5,18.1,29.1,27.2,43.7c13.8,22.3,27.6,44.6,41.4,66.8c3.9,6.3,7.8,12.7,11,19.6
			c-32.9-35.3-65.7-70.5-98.2-107.8c-1.6,13.4-3.1,25.4-4.6,38.1c4.4-1.7,6.6-4.9,9.8-7.2c3.8,1.2,4.3,3.4,1.9,6.5
			c-1.7,2.3-3.7,4.5-6.4,5.5c-5.4,1.9-7,5.6-7.5,11.2c-2.4,27.9-5.3,55.7-8,83.5c0,0.3-0.3,0.6-0.4,0.9
			C370,444.6,369.6,444.5,369.3,444.5z"/>
		<path class="st0" d="M318.3,82c-0.4,13-2.5,25.8-3.7,38.7c-2.8,29.3-5.8,58.6-8.7,87.9c-1.8,17.9-3.6,35.7-5.4,53.6
			c-0.2,1.5-0.5,3-0.8,4.4c-0.2,1.4-0.7,2.7-2.4,2.6c-2-0.1-2.2-1.5-2.3-3.2c-0.4-10.6-0.7-21.3-1.2-31.9c-1-23.4-2.1-46.8-3.1-70.8
			c-2.2,2.2-2.5,4.8-3.2,7.1c-5,15-10.5,29.8-18.6,43.5c-4,6.7-8.2,13.2-15.1,17.5c-7.1,4.5-14.7,2.4-18.1-5.2
			c-4.6-10.4-3.5-21.3-2-31.9c2.7-19.5,8.2-38.2,15.4-56.5c1.9-4.9,4.6-8.4,10.2-9.9c4.8-1.3,9.1-4.4,13.7-6.7
			c1.1-0.6,2.3-1,3.9-1.8c-0.3,4.2-2.5,7.1-3.8,10.2c-6.8,16-12.5,32.3-15.8,49.3c-1.1,5.5-0.9,11.3,0,16.9c0.3,1.7,0.8,3.8,2.8,4.4
			c1.9,0.6,2.9-1.3,4-2.4c6.5-6.6,9.7-15,12.7-23.4c8.2-23.3,12.9-47.4,15.9-71.8c0.8-6.7,5.8-8.8,9.5-11.6
			c3.7-2.7,7.6-5.5,11.8-7.8C315.2,82.5,316.2,81.5,318.3,82z"/>
		<path class="st0" d="M465.7,59.3c-35.1,4.3-70.1,8.7-105.3,13c-6.4,60.7-12.7,120.8-19,181c-0.3,0-0.5,0-0.8,0
			c-1.5-59.2-2.9-118.3-4.4-178.1c-18.1,2.2-35.8,4.3-54.3,6.5c2-7.8,3.7-14.8,5.5-21.8c0.7-2.6,2.9-1.8,4.5-1.8
			c12.7-0.1,25.3,0,38,0c1.6,0,3.3,0,4.6,0c0.4-0.7,0.8-1.1,0.7-1.3c-0.9-5.8,1.9-8,7.4-9c6.8-1.2,13.4-3.4,20.6-5.4
			c-0.2,5.3-0.4,9.8-0.7,15.5c34.6,0,68.8,0,102.9,0C465.7,58.2,465.7,58.7,465.7,59.3z"/>
		<path class="st1" d="M301,409.7c-3.6-1.6-6.4,1.5-9.7,1.7c-1.6,0.1-2.8,0.2-3-1.3c-1.8-11.1-6.2-21.7-7.1-32.9
			c11.6,1.3,21.9,5.7,30.4,13.8c2.8,2.7,2.1,8.3-0.9,11.1C307.6,405,305,408.2,301,409.7z"/>
		<path class="st1" d="M165.7,372.1c3.4,1.5,1.4,3.4,0.2,5c-5.9,7.9-11.9,15.8-17.9,23.7c-0.4,0.5-0.9,1-1.3,1.5
			c-4,5.4-8.2,5.7-13.3,1.1c-1.8-1.7-3.4-3.5-5.3-5c-4.2-3.4-4.4-5.8-0.4-9.4c6.7-6,14.9-9.2,23.3-11.9c3.5-1.1,7-2,10.5-2.9
			C162.7,373,163.5,371.2,165.7,372.1z"/>
		<path class="st0" d="M160.9,487.8c2.6,2.8,5.1,5.4,3.1,9.4c-2,3.9-5.6,4.3-9.3,4.4c-5.4,0.1-10.9,0-16.4,0c0-9,0-17.4,0-26.4
			c6.4,0,12.8-0.4,19.2,0.1C163.6,475.8,165.5,482.2,160.9,487.8z M150.7,497.1c2-0.1,3.8-0.1,5.6-0.4c2.3-0.5,3.4-2,2.5-4.4
			c-0.7-1.8-2.5-2.1-4.2-2c-3.5,0.3-7.3-1.2-10.5,1.1c-0.4,0.3-0.3,1.2-0.3,1.9C143.5,499.4,148.3,496,150.7,497.1z M157.4,480.3
			c-4.4-0.5-8.8-0.6-13.4,0.1c-0.2,1.6-0.7,3,0,4.4C154.6,487,158.3,485.8,157.4,480.3z"/>
		<path class="st0" d="M278.5,496.4c1.3,5-1.1,5.9-4.3,4.3c-3-1.5-5.4-1.3-8.2,0.3c-1.7,0.9-3.8,1.1-5.8,0.8
			c-3.8-0.6-7.6-1.2-9.2-5.5c-1.6-4.5,0.7-7.6,4-10.5c-2.1-3.1-2.8-6.2,0.4-8.8c3.8-3,8.1-3.1,12.1-0.9c5.2,2.8,2.6,7.3,1.3,11.5
			c4.7,1.4,5.4-4.8,9.2-4.4c4,6.1-2.9,7.2-4.8,10.5C274,496.5,276.4,496.1,278.5,496.4z M261.3,497.5c2.4-0.6,5.6-0.4,5.4-3.8
			c-0.1-3.2-2.7-4.9-5.8-4.9c-2.6,0-4.9,1.2-5,4.3C255.9,496.6,258.6,497.2,261.3,497.5z M262.3,484.2c1.9,0.1,3.5-0.6,3.3-2.7
			c-0.1-2-1.7-2.7-3.6-2.6c-1.8,0.1-3.5,0.5-3.6,2.6C258.4,484.1,260.5,484.2,262.3,484.2z"/>
		<path class="st0" d="M338.7,491.4c0,3,0,6.1,0,9.4c-1.8,0.9-3.5,0.5-5.6,0.3c0-8.6,0-17,0-25.8c6.3,0,12.7-0.3,19.1,0.1
			c3.2,0.2,6.1,2,6.7,5.7c0.6,3.5-0.1,6.6-3.7,8.4c-0.7,0.4-1.3,1-2.2,1.7c2.1,3.2,4.2,6.3,6.5,9.6c-4.2,1-7,0.8-9.3-3.4
			C348.2,493.5,345.6,488.5,338.7,491.4z M339,485.6c4.1,0,7.7,0.1,11.3,0c1.6,0,3.1-0.9,3.1-2.6c0.1-1.9-1.3-3-3.2-3
			c-3.7,0.1-7.5-0.6-11.2,0.4C339,482.1,339,483.6,339,485.6z"/>
		<path class="st0" d="M234.6,500.7c-6.2,2.6-8.6-1.5-10.7-5.5c-2.1-4.1-5.1-5.4-9.6-4c-1.2,3-0.3,6.3-0.3,9.5
			c-1.9,1-3.8,0.9-5.6,0.3c-0.3-0.3-0.5-0.4-0.5-0.6c0-8.3,0-16.6,0-25.2c6.4,0,12.5-0.2,18.6,0.1c3.7,0.2,6.8,2.2,7.6,6.1
			c1,4.8-1.9,7.8-6.3,9.7C230.2,494.3,232.3,497.4,234.6,500.7z M214.4,485.3c3.6,0.9,7.4,0.3,11.1,0.4c1.7,0,2.9-1,2.9-2.7
			c0-1.6-0.8-2.9-2.7-2.8c-3.9,0.1-7.8-0.7-11.6,0.4C213.7,482.2,213.6,483.7,214.4,485.3z"/>
		<path class="st0" d="M322.3,478c-0.2,2.2-1.7,3.3-2.5,4.9c-6.2-4.1-13.4-4.6-17.1-1.1c-2.8,2.7-4.2,6-2.4,9.9
			c2,4.2,6.6,6.5,11.7,5.3c2.1-0.5,6.1,0.3,5.6-4.2c-2.5-1-5-0.2-7.4-0.2c-0.5-1.7-0.4-3.4,0-5.1c4.1,0,8.2,0,13,0c0,3.2,0,6.1,0,9
			c0,0.9-0.1,1.6-0.8,2.2c-4.8,4.7-20.1,4-24.8-1c-6.8-7.4-4.1-18.3,5.6-21.7C309.8,473.7,316.2,474.7,322.3,478z"/>
		<path class="st0" d="M200.1,500.8c-3.7,1.3-6,0.5-7.4-3.2c-2-5.2-6.6-1.9-10-2.7c-2.7-0.6-4.1,1-4.5,3.3c-0.9,4.4-3.9,3-6.7,2.7
			c3.8-8.6,7.5-17,11.4-25.7c1.7,0,3.8,0,6.2,0C191.8,484.1,196.8,492,200.1,500.8z M182.4,489.7c2.1,0.5,4,1,6-0.6
			c-1-1.9-0.9-4.4-3.2-6.1C183.4,484.9,182.7,487.2,182.4,489.7z"/>
		<path class="st0" d="M385.8,475.2c2.2,0,3.8,0,5.8,0c0,7.2,0,14.2,0,21.5c5.9,0.7,11.5,0.4,17,0.1c1,1.5,0.5,3,0.5,4.5
			c-7.9,0-15.6,0-23.3,0C385.8,492.4,385.8,484,385.8,475.2z"/>
		<path class="st0" d="M415.9,501.4c0-8.8,0-17.3,0-25.7c1.8-1.1,3.6-0.7,5.4-0.3c0,7,0,13.9,0,21.3c6,0.4,11.8,0.5,17.7-0.1
			c0.8,1.5,0.5,3.1,0.3,4.8C431.4,501.4,423.7,501.4,415.9,501.4z"/>
		<path class="st0" d="M373.9,475.5c0,8.5,0,16.8,0,25.2c-1.7,1.1-3.6,0.7-5.7,0.3c0-8.4,0-16.8,0-25.4
			C370.2,474.9,372.2,474.6,373.9,475.5z"/>
		<path class="st1" d="M266.2,373.1c4.6,8.7,7.6,18,10.9,27.2c1.5,4.4,5.5,8,4.5,13.4c-26.9,5.1-53.9,5-81.1,3.4
			c-0.8-5,0.9-9.2,1.1-13.4c0.1-2.3,1.9-2.5,3.6-2.1c2,0.4,2,2,1.5,3.6c-0.4,1.5-1.8,2.8-1.4,4.8c3.1,1.2,3.4-1.5,3.8-3.1
			c1.3-6.1,5.9-4.5,9.9-4.6c4.1-0.1,3.6,3.1,4.2,5.5c0.5,1.9,1,3.8,1.6,6.2c3.3-2.5,0.9-6,2.4-8.4c0.9-0.7,2-0.7,2.7-0.1
			c4.4,3.9,9.6,5.2,15.3,4.6c3.2-0.3,2.2,2.7,4.4,4.7c0.1-5.6,4.1-8.5,6.3-11.9c-1-2.3-2.8-1.3-3.8-2.3c-0.4-1.9-0.4-3.8,0.5-6
			c6.2,4.6,10.3,11.3,17.2,14.9c1.7-2.7-0.4-4.1-1.3-5.6c-1.7-2.9-3.6-5.6-5.7-8.1c-2.7-3.4-4.5-6.1,1-8.8c2.8-1.4,1-3.6-0.9-5.3
			c-2.9,1.3-4.3,4.7-7.9,5.2c-1.9-2.9-2.3-6.2-1.1-10.5c-4.6,2.4-7.7,4.2-6.6,9.9c1,5,0.2,10.3,0.2,15.4c0,1,0,2.2-1.1,2.6
			c-4.7,1.6-8.3-0.8-12-3.2c-3-2-4-4.6-3.1-8.1c0.8-3.1,3-4.9,5.9-3.9c5.1,1.8,6.5-1.1,7.6-5.2c-3.4-2.8-6.4-0.8-9.6,0.3
			c-3.4,1.2-5.2,4-7.2,6.6c-2.2,2.9-0.6,6.7-2.6,9.9c-0.9-7.4-1.7-14.9-2.6-22.3c-0.2-2,0.5-5.1-2.6-5c-2.6,0.1-4.8,1.8-5.5,4.9
			c-1.1,4.7-2.6,9.3-3.9,13.9c-1.1,3.6-2.9,6-7.8,4.2c0.3-6.9,1.1-14,2.4-21.3c-4.6,0.4-6.9,2.2-6.7,6.9c0.1,3.8-0.4,7.6-0.8,11.4
			c-0.1,1.5-0.4,3.3-2.5,2.9c-1.6-0.3-1.7-1.8-1.7-3.2c0.1-4.1,1.8-8.1,0.8-12.3c-3.6,0.5-5.1,2.4-4.8,5.8c0.1,1.5,0.1,3,0,4.5
			c0,2.9,0.8,6.3-4.9,6.8c6.7,2.2,4.5,7.7,5.3,11.9c0.4-0.1,0.9-0.2,1.3-0.2c0.3-2.5,0.6-5,0.9-7.6c1.7-0.9,3.3,0,5.2-0.2
			c0,2.8,0,5.4,0,8c0.1,7.6-0.1,7.9-7.4,6.7c-14.1-2.2-28.5-2.2-42.6-7.3c2.3-5,6.8-8.1,10.2-11.9c8.7-9.8,17.7-19.3,26.6-28.9
			c0.2-0.2,0.6-0.2,0.9-0.3c1.8,1,3.7,1.2,5.7,1.2c14.1-0.3,28.2,0.3,42.2,0.7C244.5,370.3,255.3,372.1,266.2,373.1z M188.9,375.5
			c-6.5,3.3-11.1,8-15.3,13.4c-3,3.9-2.5,7.6,1.2,10.4c4.1,3.1,3.8,5.4-0.6,7.5c-1.6,0.8-2.4,1.8-1.5,3.5c0.9,1.8,2.5,1.4,3.9,0.8
			c4.3-1.9,5.9-7.7,3.3-11.8c-3.8-5.9-3.3-8.5,2.2-12.9c1.7-1.3,3.4-2.7,5.3-3.7C190.1,381.1,190.6,379.1,188.9,375.5z"/>
		<path class="st1" d="M216.5,387.9c3.8,2.1,2.6,5.5,3.7,8.3c-2.5,0.9-4.4,0.5-7,0.5C214.4,393.6,215.4,390.9,216.5,387.9z"/>
		<path class="st0" d="M188.9,375.5c1.7,3.6,1.2,5.6-1.5,7.1c-1.9,1.1-3.6,2.4-5.3,3.7c-5.5,4.4-5.9,6.9-2.2,12.9
			c2.6,4,0.9,9.9-3.3,11.8c-1.4,0.6-3,1-3.9-0.8c-0.9-1.7-0.1-2.7,1.5-3.5c4.4-2.1,4.7-4.4,0.6-7.5c-3.7-2.8-4.2-6.5-1.2-10.4
			C177.7,383.5,182.4,378.8,188.9,375.5z"/>
	</g>
</g>
</svg>
